<svg xmlns="http://www.w3.org/2000/svg" viewBox="0 0 512 512"><path d="M193.551 121.693a11.514 11.514 0 0 0-.635-2.084 11.802 11.802 0 0 0-1.025-1.928 11.165 11.165 0 0 0-1.382-1.694 11.732 11.732 0 0 0-1.694-1.382 11.807 11.807 0 0 0-1.928-1.025 11.246 11.246 0 0 0-2.084-.635 11.061 11.061 0 0 0-4.358 0 11.323 11.323 0 0 0-4.012 1.66c-.602.401-1.181.869-1.694 1.382a11.116 11.116 0 0 0-1.382 1.694 11.807 11.807 0 0 0-1.025 1.928c-.279.679-.49 1.37-.635 2.084a11.073 11.073 0 0 0-.223 2.185 11.266 11.266 0 0 0 1.883 6.184 10.65 10.65 0 0 0 1.382 1.694c.513.513 1.092.982 1.694 1.382.613.401 1.26.747 1.928 1.025.669.279 1.371.49 2.084.635.724.145 1.449.211 2.185.211.724 0 1.449-.067 2.173-.211a11.3 11.3 0 0 0 4.012-1.66c.602-.4 1.17-.869 1.694-1.382.513-.513.97-1.081 1.382-1.694a11.374 11.374 0 0 0 1.66-4.011c.145-.714.223-1.45.223-2.173 0-.736-.078-1.461-.223-2.185zm-70.593 132.544c-47.646 0-86.407 38.761-86.407 86.407s38.761 86.407 86.407 86.407 86.407-38.761 86.407-86.407-38.761-86.407-86.407-86.407zm0 150.524c-35.353 0-64.116-28.763-64.116-64.116 0-35.353 28.763-64.116 64.116-64.116 35.354 0 64.116 28.763 64.116 64.116 0 35.353-28.762 64.116-64.116 64.116z"/><path d="M510.786 323.408c-.007-.07-.021-.14-.03-.211a122.006 122.006 0 0 0-2.917-14.287l-38.831-187.035c-.45-2.788-3.407-19.214-12.857-35.708-14.157-24.71-35.749-37.771-62.443-37.771-25.313 0-48.811 12.592-62.858 33.685-3.412 5.124-2.024 12.043 3.099 15.455 5.123 3.412 12.042 2.024 15.455-3.098 9.904-14.871 26.467-23.749 44.305-23.749 44.506 0 52.968 52.583 53.302 54.793.032.22.07.439.116.658l25.909 124.797c-21.997-20.609-51.546-33.251-83.996-33.251-64.042 0-116.797 49.217-122.449 111.813h-21.186C239.754 266.904 187 217.687 122.957 217.687c-32.45 0-61.999 12.641-83.996 33.251L64.87 126.14a9.96 9.96 0 0 0 .116-.658c.02-.14 2.261-14.375 10.202-28.233 10.097-17.625 24.599-26.56 43.1-26.56 17.839 0 34.401 8.879 44.305 23.749 3.413 5.121 10.332 6.512 15.455 3.098 5.124-3.413 6.51-10.332 3.099-15.455-14.048-21.091-37.547-33.683-62.859-33.683-26.694 0-48.285 13.061-62.443 37.771-9.449 16.493-12.406 32.92-12.857 35.708L4.161 308.91a122.006 122.006 0 0 0-2.917 14.287c-.009.07-.022.14-.03.211A123.431 123.431 0 0 0 0 340.644c0 67.799 55.159 122.958 122.958 122.958 64.042 0 116.797-49.217 122.449-111.813h21.186c5.652 62.595 58.406 111.813 122.449 111.813 67.799 0 122.958-55.159 122.958-122.958 0-5.849-.42-11.603-1.214-17.236zM122.958 441.312c-55.508 0-100.667-45.159-100.667-100.668 0-4.877.356-9.673 1.03-14.367l2.526-12.164c11.672-42.677 50.784-74.137 97.112-74.137 55.509 0 100.668 45.159 100.668 100.667 0 55.507-45.16 100.669-100.669 100.669zm266.084 0c-55.509 0-100.668-45.159-100.668-100.667s45.159-100.667 100.668-100.667c46.328 0 85.44 31.46 97.112 74.137l2.526 12.164c.673 4.693 1.03 9.489 1.03 14.367-.001 55.507-45.16 100.666-100.668 100.666z"/><path d="M340.306 121.695a11.538 11.538 0 0 0-.635-2.084 11.802 11.802 0 0 0-1.025-1.928c-.401-.602-.869-1.181-1.382-1.694s-1.081-.981-1.694-1.382a10.97 10.97 0 0 0-1.928-1.025 11.246 11.246 0 0 0-2.084-.635c-3.622-.736-7.468.457-10.065 3.043a11.116 11.116 0 0 0-1.382 1.694 11.807 11.807 0 0 0-1.025 1.928c-.279.679-.49 1.37-.635 2.084a11.062 11.062 0 0 0-.212 2.185 10.964 10.964 0 0 0 .847 4.255c.279.67.624 1.326 1.025 1.928.412.613.88 1.181 1.393 1.694 2.062 2.073 4.938 3.255 7.88 3.255a11.03 11.03 0 0 0 4.257-.846c.68-.279 1.326-.624 1.928-1.025.613-.4 1.181-.869 1.694-1.382s.981-1.081 1.382-1.694a11.374 11.374 0 0 0 1.66-4.011c.145-.714.212-1.45.212-2.173a10.999 10.999 0 0 0-.211-2.187zm48.736 132.542c-47.646 0-86.407 38.761-86.407 86.407s38.763 86.407 86.407 86.407c47.645 0 86.407-38.761 86.407-86.407s-38.763-86.407-86.407-86.407zm0 150.524c-35.354 0-64.116-28.763-64.116-64.116 0-35.353 28.763-64.116 64.116-64.116 35.353 0 64.116 28.763 64.116 64.116-.001 35.353-28.763 64.116-64.116 64.116z"/></svg>