<svg viewBox="0 0 420 530" xmlns="http://www.w3.org/2000/svg"><g fill="#fff"><path d="M204.6 0h25.15c5.51 1.58 11.52.9 17.25 1.2 42.72 2.08 85.28 6.64 127.51 13.52 12.24 2 24.48 4.1 36.59 6.81 2.86.66 5.91.74 8.54 2.18-.07 4.66-.2 13.98-.27 18.64l.63-7.43v298.73l-.49 11.79c1.04 19.48-.92 40.43-11.82 57.21-10.55 17.1-27.85 28.29-44.81 38.23-50.71 28.78-100.8 58.63-151.15 88.02-2.33 1.9-4.73-.82-6.84-1.8-48.64-29.1-97.14-58.48-146.46-86.44-11.11-6.59-22.07-13.66-31.45-22.61-12.52-11.72-21.92-27.14-24.92-44.15C.61 367.37.43 360.66.54 354c.01-109.38 0-218.76.01-328.14-.23-1.36.34-2.9 1.89-3.03C41.83 14.22 81.86 8.82 121.93 4.69c18.7-1.33 37.38-3.41 56.16-3.43 10.69-1.3 21.49-.7 32.23-.57L204.6 0m-13.61 12.49c-8.27 1.01-16.62.51-24.92 1.15-51.51 2.82-102.82 9.29-153.47 19.25-.15 1.34-.27 2.69-.28 4.04.05 106.39-.01 212.78.04 319.16-.11 15.99 4.68 32.18 14.86 44.68 14.04 17.34 34.25 27.75 53.31 38.53 29.17 16.81 58.07 34.08 86.98 51.33 14.2 8.23 28.01 17.19 42.37 25.12 15.29-8.42 30.15-17.67 45.31-26.35 34.16-19.96 68.23-40.09 102.67-59.57 15.43-9.19 31.5-19.28 40.69-35.27 6.93-11.93 9.18-25.93 9.01-39.56.01-86.33-.01-172.65.01-258.98-.16-21.02.29-42.07-.21-63.08-31.24-6.26-62.81-10.85-94.45-14.39-13.28-1.35-26.55-2.86-39.9-3.5-5.31-1.12-10.75-.54-16.11-1.16-8.28-.83-16.62-.36-24.91-1.03-4.64-.7-9.35-.15-14.01-.45-9-.61-17.99.28-26.99.08z"/><path d="M29.45 41.08c54.32-9.88 109.36-15.97 164.56-17.33 11.33 0 22.67-.01 34 .02 9.33.41 18.66.83 27.99 1.06 11.35 1.2 22.79 1.28 34.12 2.72 27.8 2.42 55.47 6.08 83.01 10.49 7.87 1.62 15.96 2.29 23.67 4.64-2.56 1.67-5.71 1.01-8.6 1.24-57.69 2.46-115.38 15.56-167.36 41.12-3.6 1.78-7.03 3.9-10.75 5.4l-.91-.28C155.91 61.99 96.02 47.27 36.03 44.23c-4.38-.25-8.97.25-13.16-1.19 2.02-1.16 4.33-1.55 6.58-1.96m159.77.98c-3.09 5.34 1.93 12.16 7.8 12.09-1.28 2.88-3.09 5.47-4.65 8.19 1.51.03 3.03.05 4.55.05 2.75-5.08 6.7-9.63 8.24-15.27 1.17-5.26-3.38-9.62-8.25-10.4-3.07.84-6.49 2.06-7.69 5.34m45.29-2.95c-2.85 3.25-3.56 7.76-3.4 11.93.28 3.6.84 7.64 3.72 10.16 3.3 2.93 9.22 2.07 11.3-1.91 2.51-4.6 2.33-10.13 1.39-15.13a9.792 9.792 0 0 0-7.7-7.28c-1.81.63-3.83.93-5.31 2.23m-62.67 7c1.63-.81 3.23-1.69 4.87-2.5.68 6.26.36 12.56.47 18.84l3.55.04c-.03-8.32.28-16.66-.12-24.97-4.23.21-9.59 3.81-8.77 8.59m38.77-8.38c.07 1.32.17 2.64.3 3.96 2.53.26 5.06.39 7.59.64-1.4 3.04-6.18 5.4-4.01 9.05 2.24.17 5.28-.79 6.62 1.66.51 1.57.48 3.75-1.14 4.66-2.99 1.75-6.64.55-9.2-1.41-.32.76-.97 2.28-1.29 3.04 4.01 6.11 15.21 4.25 15.98-3.32.97-4.31-2.16-7.76-5.86-9.35 1.84-2.87 5.39-5.11 4.78-8.96-4.59-.09-9.19-.18-13.77.03z"/><path d="M193.45 48.2c-2.07-2.79.04-6.83 3.58-6.52 3.34-.37 5.38 4.55 2.57 6.51-1.74 2.01-4.19.99-6.15.01zm43.96-5.74c2.51-2.49 6.1.58 6.22 3.45.27 3.11.41 6.3-.2 9.38-.88 1.64-2.16 3.54-4.3 3.26-2.83-.65-3.55-3.89-3.91-6.34-.2-3.29-.17-7.18 2.19-9.75z"/><path d="M23.6 55.9c.93-1.63 2.93-1.02 4.46-1.08 4.96.89 10.02.77 15.04.93 58.05 4.15 115.87 19.11 166.87 47.6 56.68-31.6 121.62-46.8 186.2-48.58.16 5.42.26 10.86.02 16.28-7.33.96-14.88.32-22.23 1.39-52.86 4.17-105.18 18.51-152.04 43.54-4.05 2.05-7.8 4.67-11.96 6.5-4.33-1.99-8.31-4.65-12.55-6.83C144.13 87.2 83.87 73.04 23.69 71.17c-.35-5.08-.23-10.19-.09-15.27z"/><path d="M23.6 82.58c3.54-.06 7.09-.12 10.61.29 5.54.94 11.22.27 16.77 1.19 55.85 5.41 111.14 22.07 159.02 51.71 45.21-28.06 97.11-44.42 149.77-50.78 12.11-1.22 24.25-2.48 36.42-2.4.16 5.6.24 11.2-.05 16.8-39.62.7-79.04 8.31-116.45 21.32-24.35 8.66-47.88 19.76-69.67 33.69-47.17-29.92-101.72-47.43-157.13-53.27-9.72-1.07-19.45-1.61-29.23-1.78-.28-5.58-.19-11.18-.06-16.77z"/><path d="M23.68 110.61c3.23-.27 6.47-.15 9.67.35 30.21 1.29 60.21 6.86 89.15 15.64 28.69 8.88 56.46 21.15 81.73 37.45.02 96.32.01 192.64.01 288.96-.07 15.46.13 30.93-.1 46.39-17.96-10.45-35.65-21.33-53.58-31.83-3.91-2.46-8.04-4.55-11.77-7.29-.05-74.65-.02-149.31-.01-223.96-3.83-1.17-7.88-.47-11.81-.63-34.48-.07-68.96.22-103.44-.12-.06-39.85 0-79.7-.03-119.55-.01-1.8.04-3.61.18-5.41zm238.82 28.76c42.21-17.86 87.88-27.81 133.66-28.78.3 41.66.1 83.34.1 125.02-38.35.27-76.7 0-115.05.07-.2 1.77-.32 3.54-.33 5.32.07 73.43-.05 146.85.06 220.27a5435.24 5435.24 0 0 1-65.16 38.19c-.3-70.8-.05-141.61-.13-212.41.07-40.94-.15-81.89.11-122.83 14.54-10.01 30.61-17.7 46.74-24.85z"/><path d="M23.6 247.19c17.47-.28 34.94-.04 52.4-.12 4.38.06 8.76-.21 13.12.25.07 15.35.12 30.7-.01 46.04-21.84.13-43.68.11-65.52 0-.13-15.39-.16-30.78.01-46.17zm76.86.07c8.97-.38 17.96-.17 26.94-.12.51 15.37.31 30.81.1 46.2-9 .12-18 .15-27 .02-.21-15.36-.13-30.74-.04-46.1zm191.89-.07c9.01-.13 18.04-.32 27.05.1.1 15.35.12 30.71-.01 46.06-9.01.22-18.02.13-27.02.01-.17-15.39-.13-30.79-.02-46.17zm38.48.02c21.8-.22 43.61-.27 65.4.03.11 15.39.12 30.78 0 46.17-21.82.01-43.65.12-65.47-.07-.79-8.43-.15-16.93-.36-25.38.19-6.91-.44-13.87.43-20.75zM23.62 304.79c8.84-.14 17.71-.16 26.55.01 1.61.8.88 2.74 1.07 4.17-.07 13.82.05 27.65-.08 41.47-9.16.52-18.4.38-27.57.1-.13-15.25-.17-30.5.03-45.75zm38.64 1.26c-.13-2 2.5-1.18 3.68-1.37 20.5.08 41-.05 61.49.06.56 14.09.06 28.21.25 42.31-.21 1.32.52 3.95-1.66 3.68-21.23-.09-42.47.18-63.7-.14-.22-14.84-.14-29.7-.06-44.54zm230.12 44.56c-.18-15.28-.19-30.58.01-45.86 21.84-.09 43.67-.06 65.5 0 .55 9.74.07 19.51.23 29.27-.15 5.56.37 11.17-.37 16.7-21.79-.06-43.58.16-65.37-.11zm77.1.08c-.18-15.32-.19-30.65.03-45.97 8.89.01 17.78-.1 26.67.06.22 15.27.18 30.55.02 45.83-8.9.25-17.82.1-26.72.08zM24.05 362.43c1.31-.3 2.59-.87 3.97-.78 14 .05 28 .1 42-.02 1.67-.14 3.26.41 4.8.99-11.65 11.77-23.43 23.4-35.11 35.12-9.62-9.01-14.92-22.27-15.66-35.31zm65.53 1.06c2.71-2.81 7-1.55 10.45-1.83 6.45.31 13.02-.7 19.36.83-18.02 18.26-36.19 36.4-54.43 54.44-6.39-2.39-11.71-7.25-17.23-11.25 1.49-1.83 3.13-3.53 4.8-5.19 12.38-12.3 24.65-24.72 37.05-37zm210.9-1.06c4.77-1.1 9.67-.51 14.51-.56 4.74.15 9.96-1.21 14.39.8 14.55 14.48 29.11 28.97 43.52 43.58-5.23 4.47-11.12 8.12-17.02 11.65-14.2-13.7-27.94-27.88-41.97-41.75-4.44-4.61-9.19-8.93-13.43-13.72zm45.06.58c.13-.2.41-.61.54-.81 16.2-.97 32.46-.37 48.67-.44.37.24 1.09.73 1.45.98-.71 12.45-4.71 25.14-13.35 34.4-.61 1.04-2.23 1.09-2.93.12-11.48-11.39-22.77-22.99-34.38-34.25zM75.01 423.1c17.25-17.54 34.67-34.93 52.19-52.2 1.01 8.64.22 17.41.49 26.1.29 2.14-1.57 3.46-2.85 4.84-10.63 10.54-21.12 21.23-31.82 31.69-6.08-3.34-12.23-6.59-18.01-10.43zm217.28-26.03c.07-8.83-.29-17.68.23-26.5 11.94 11.36 23.32 23.32 35.1 34.86 5.9 6.26 12.46 11.92 18.04 18.48-5.93 3.49-11.93 6.85-17.91 10.23-11.09-10.54-21.65-21.64-32.61-32.32-1.26-1.36-3.14-2.64-2.85-4.75zm-189.16 42.1c7.96-8.08 15.9-16.2 24.12-24.04.95 8.23.15 16.57.41 24.84-.11 4.57.34 9.17-.38 13.71-8.05-4.84-16.4-9.21-24.15-14.51zm189.35 15.47c-.36-13.15-.36-26.35.02-39.5 8.63 7.94 16.71 16.5 24.97 24.82-8.2 5.11-16.66 9.78-24.99 14.68z"/></g></svg>