<svg viewBox="0 0 500 392" xmlns="http://www.w3.org/2000/svg"><path d="M121.69 0H500v392H0V121.92C40.48 81.2 81.14 40.66 121.69 0M28.94 116.76c29.25.06 58.5.05 87.75.01-.08-29.25.01-58.51-.05-87.76-29.33 29.15-58.47 58.5-87.7 87.75m66.5 53.43c.09 43.17.02 86.34.03 129.52 5.87.11 11.74.01 17.61.06.08-16.9.08-33.79 0-50.69 11.65.08 23.31.07 34.97.01 11.19-.53 23.07-3.62 31.04-11.96 6.69-6.5 9.56-16 9.84-25.13.56-10.66-2.51-22.05-10.47-29.54-8.55-8.96-21.35-12.33-33.4-12.42-16.54.1-33.09-.18-49.62.15m112.67-.05c-.05 43.17-.15 86.34.05 129.51 12.98-.03 25.97.17 38.94-.09 15.86-.64 32.18-6.96 42.12-19.75 10.04-12.52 13.36-29.09 12.78-44.82.69-16.3-3.06-33.45-13.75-46.18-10.4-12.68-27.08-18.81-43.19-18.76-12.32.08-24.64-.1-36.95.09m117.89-.03c-.21 1.27-.32 2.54-.33 3.83.1 41.78-.09 83.57.09 125.35 5.7-.13 11.45.37 17.13-.28.06-18.91-.23-37.83.14-56.74 17.99.08 35.98.02 53.97.03 0-4.72.01-9.45-.02-14.17-18.03.01-36.07.01-54.11-.01.11-14.61-.25-29.25.18-43.86 18.96.12 37.92 0 56.88.07 1.98.04 3.99.01 5.96-.33-.1-4.57.12-9.15-.16-13.72-26.57-.36-53.16-.01-79.73-.17z"/><path d="M113.12 184.75c10.96.03 21.92-.02 32.87.02 9.46.12 19.34 5.2 23.12 14.21 3.33 8.25 2.99 18.4-2.08 25.88-4.68 6.7-13.18 9.39-21.02 9.61-10.97.01-21.95.01-32.92 0 .08-16.57.02-33.15.03-49.72zm112.59-.06c9.13.19 18.33-.53 27.43.49 10.09 1.45 19.37 7.47 24.58 16.25 4.54 7.34 6.25 16.01 6.81 24.52.4 14.31.85 29.83-7.21 42.38-6.55 10.66-19 16.69-31.32 16.75-6.78-.04-13.55 0-20.32-.03.01-33.45-.04-66.91.03-100.36z"/></svg>